<?xml version="1.0" encoding="UTF-8"?>
<svg version="1.1" xmlns="http://www.w3.org/2000/svg" width="664" height="587">
<path d="M0 0 C219.12 0 438.24 0 664 0 C664 193.71 664 387.42 664 587 C444.88 587 225.76 587 0 587 C0 393.29 0 199.58 0 0 Z " fill="#1D1C19" transform="translate(0,0)"/>
<path d="M0 0 C1.60118935 -0.01226624 1.60118935 -0.01226624 3.23472595 -0.02478027 C6.75771536 -0.0495374 10.28066477 -0.06612432 13.80371094 -0.08056641 C15.61365665 -0.08855192 15.61365665 -0.08855192 17.46016693 -0.09669876 C23.8453457 -0.12338652 30.2305052 -0.14277659 36.61572266 -0.15722656 C41.89031295 -0.17056986 47.16451678 -0.19843707 52.43896484 -0.23925781 C58.81961313 -0.28863207 65.19991073 -0.3133532 71.58074188 -0.32045364 C74.0063434 -0.32715484 76.43193744 -0.34234718 78.8574295 -0.36634445 C82.25822983 -0.3980757 85.65768335 -0.39802026 89.05859375 -0.390625 C90.0511467 -0.40703033 91.04369965 -0.42343567 92.06632996 -0.44033813 C99.99153557 -0.37013325 106.81396522 1.79582132 112.57714844 7.43115234 C113.01800781 8.11564453 113.45886719 8.80013672 113.91308594 9.50537109 C114.37972656 10.20275391 114.84636719 10.90013672 115.32714844 11.61865234 C115.64425781 12.13814453 115.96136719 12.65763672 116.28808594 13.19287109 C116.784375 12.58958984 117.28066406 11.98630859 117.79199219 11.36474609 C118.47132813 10.56552734 119.15066406 9.76630859 119.85058594 8.94287109 C120.84251953 7.75951172 120.84251953 7.75951172 121.85449219 6.55224609 C127.81729261 0.77129672 132.77107148 -0.42036346 140.80761719 -0.37353516 C141.70622971 -0.37973373 142.60484222 -0.38593231 143.53068542 -0.39231873 C145.42417321 -0.39939283 147.3177235 -0.39628516 149.21118164 -0.38354492 C152.08240551 -0.36971647 154.95034165 -0.40373995 157.82128906 -0.44189453 C176.32586058 -0.52150706 176.32586058 -0.52150706 183.28808594 5.19287109 C188.8282814 11.13683991 191.47748755 16.60602995 191.70214844 24.80615234 C191.74082031 26.05332031 191.77949219 27.30048828 191.81933594 28.58544922 C191.86574219 30.52581055 191.86574219 30.52581055 191.91308594 32.50537109 C191.95175781 33.81828125 191.99042969 35.13119141 192.03027344 36.48388672 C192.12441711 39.72007547 192.21004946 42.95626044 192.28808594 46.19287109 C192.67552979 45.20480469 193.06297363 44.21673828 193.4621582 43.19873047 C194.91981034 39.49440222 196.39923783 35.79908617 197.88500977 32.10595703 C198.52206165 30.51389109 199.15337936 28.91951709 199.77856445 27.32275391 C207.86926942 6.68596774 207.86926942 6.68596774 218.18748474 1.00570679 C222.34185265 -0.60184182 226.64352732 -0.354 231.04199219 -0.30322266 C232.06107162 -0.30467789 233.08015106 -0.30613312 234.13011169 -0.30763245 C236.27581656 -0.30597859 238.42153392 -0.2944752 240.56713867 -0.27368164 C243.84377586 -0.24468916 247.118797 -0.25309194 250.39550781 -0.26611328 C252.48601043 -0.25987626 254.57650797 -0.25148561 256.66699219 -0.24072266 C257.64213272 -0.24365829 258.61727325 -0.24659393 259.6219635 -0.24961853 C267.58905775 -0.13952714 272.75124757 2.1688997 278.68164062 7.46191406 C281.38072191 10.37019465 282.86643292 13.63595622 284.41308594 17.25537109 C284.91001953 18.36223267 284.91001953 18.36223267 285.41699219 19.49145508 C288.28607724 25.96154887 290.88057342 32.53748794 293.28808594 39.19287109 C293.99771484 37.74267578 293.99771484 37.74267578 294.72167969 36.26318359 C302.18204174 21.41509432 311.84490138 10.34184423 327.12402344 3.23583984 C338.48648754 -0.50956499 350.12985657 -0.15069265 361.95214844 -0.17822266 C363.95510926 -0.18720483 365.95806947 -0.19632692 367.96102905 -0.20558167 C372.14167911 -0.22199506 376.32224975 -0.22975868 380.50292969 -0.23266602 C385.8436267 -0.23806488 391.18357287 -0.2758401 396.52405739 -0.32141018 C400.65404973 -0.35122232 404.7838613 -0.35839036 408.91395187 -0.35939217 C410.88263796 -0.36358034 412.85132528 -0.3759579 414.81990433 -0.39690971 C434.83719316 -0.59315135 434.83719316 -0.59315135 441.28808594 5.19287109 C443.72732454 7.62627464 445.73590285 10.08850491 447.28808594 13.19287109 C449.55808209 12.11900875 451.65576454 10.95852649 453.77636719 9.60693359 C466.84294873 1.32962468 479.83642379 -0.43720031 494.96777344 -0.37353516 C496.51661548 -0.3787893 498.06545433 -0.3850722 499.61428833 -0.39231873 C502.82960286 -0.40262405 506.04447197 -0.39829929 509.25976562 -0.38354492 C513.35847013 -0.36626462 517.45578461 -0.39001606 521.55433464 -0.42503452 C524.74076431 -0.44708046 527.92686389 -0.44555162 531.1133461 -0.43726921 C532.62427432 -0.43645567 534.13522824 -0.44320342 535.64608383 -0.45804024 C546.07652525 -0.54490269 553.43823487 0.4507945 561.10058594 7.94287109 C566.90883147 16.57226445 567.8686153 23.63908628 567.78979492 33.98339844 C567.79358497 35.35602877 567.79909063 36.72865526 567.8061676 38.10127258 C567.82005305 41.80607028 567.80900047 45.51039993 567.79245639 49.21517134 C567.77852883 53.10842658 567.78507491 57.00165676 567.78858948 60.89492798 C567.79128619 67.43312042 567.7778648 73.97112874 567.75463867 80.50927734 C567.72805457 88.04435259 567.72627676 95.5791197 567.73802704 103.11422575 C567.74884747 110.3901919 567.74258299 117.66604772 567.72847176 124.94200516 C567.72274656 128.02546454 567.72276715 131.10884225 567.72753716 134.1923027 C567.73234801 137.83190819 567.72203754 141.47118112 567.7005825 145.1107235 C567.6924614 147.06585991 567.69882115 149.02104014 567.70578003 150.97618103 C567.61803067 161.50570244 566.71029596 170.72628145 559.12402344 178.53662109 C553.50582401 183.6049542 548.98444331 185.31038941 541.42480469 185.33813477 C540.24257324 185.34451462 539.0603418 185.35089447 537.84228516 185.35746765 C536.56627441 185.35858047 535.29026367 185.3596933 533.97558594 185.36083984 C531.99582764 185.36583244 531.99582764 185.36583244 529.97607422 185.3709259 C527.17853988 185.37691137 524.38103638 185.37876668 521.58349609 185.37817383 C518.03113082 185.37807288 514.47896848 185.39165703 510.926651 185.40894604 C508.16907886 185.4201764 505.41155383 185.4220896 502.65396118 185.4215641 C500.71777864 185.42329106 498.7816108 185.43407106 496.84545898 185.44511414 C478.72225777 185.39893546 463.11154122 181.48009481 448.21386719 171.18115234 C445.93272045 169.63094715 443.78849708 168.33052775 441.28808594 167.19287109 C440.80082031 167.68916016 440.31355469 168.18544922 439.81152344 168.69677734 C427.09981082 180.87690925 412.01800545 185.65397639 394.71948242 185.61279297 C393.3828664 185.62014876 392.04625669 185.62873933 390.70965576 185.63845825 C387.10846165 185.66051717 383.50749737 185.66361311 379.90624499 185.66171074 C376.88938273 185.66159038 373.87256804 185.67018033 370.85571915 185.67848825 C363.73556704 185.69766362 356.61553217 185.70062662 349.49536133 185.69384766 C342.16972203 185.68720124 334.84458551 185.71010843 327.51904815 185.74716139 C321.20790074 185.77791557 314.89691468 185.78921255 308.5856939 185.78532457 C304.82558979 185.78326408 301.0658778 185.78862811 297.30584526 185.81321716 C293.77033273 185.8355791 290.23563622 185.83352973 286.70011902 185.81328964 C284.79704416 185.80828876 282.89395339 185.82782679 280.99098206 185.84829712 C272.77478949 185.76826156 266.47631118 184.40870023 260.54028988 178.4335556 C255.59096975 172.66440256 253.05457505 165.1777656 250.28808594 158.19287109 C246.32808594 158.19287109 242.36808594 158.19287109 238.28808594 158.19287109 C237.82917969 159.28986328 237.37027344 160.38685547 236.89746094 161.51708984 C236.2780817 162.97169261 235.65826692 164.42610998 235.03808594 165.88037109 C234.73773438 166.60160156 234.43738281 167.32283203 234.12792969 168.06591797 C231.04150874 175.2566221 227.43102416 179.8865771 220.60247803 183.88887024 C213.51884159 186.67582716 205.79530303 186.02567108 198.28808594 185.95458984 C196.44303133 185.95609494 194.59797739 185.9595315 192.75292969 185.96479797 C188.89973888 185.96911339 185.04738965 185.95241349 181.19433594 185.92016602 C176.27838106 185.88038666 171.36400299 185.8896976 166.44799805 185.91440105 C162.64212328 185.92864659 158.83661099 185.91844813 155.03076172 185.90088844 C153.21924711 185.89507704 151.40769479 185.89628367 149.59619141 185.90491295 C130.52749525 185.96551426 130.52749525 185.96551426 123.28808594 180.19287109 C121.4833495 178.15546414 119.92125429 176.1488175 118.44433594 173.86474609 C117.37912764 172.03786744 117.37912764 172.03786744 115.28808594 171.19287109 C115.10246094 171.89412109 114.91683594 172.59537109 114.72558594 173.31787109 C111.94984675 178.86934947 107.08669246 182.18360898 101.4248333 184.54942703 C97.24554604 185.80794623 92.98033877 185.60793754 88.6496582 185.58105469 C87.07733681 185.58894012 87.07733681 185.58894012 85.47325134 185.59698486 C82.01684538 185.61015784 78.56090266 185.60145024 75.10449219 185.59130859 C72.68659884 185.59333146 70.26870609 185.59624467 67.85081482 185.6000061 C62.78109941 185.60442698 57.71154265 185.59801089 52.6418457 185.58398438 C46.18315366 185.56697529 39.72483795 185.57668274 33.26616001 185.59470177 C28.26860292 185.60561649 23.27113284 185.60205681 18.27357292 185.59431839 C15.89483533 185.59233326 13.51608953 185.59471551 11.13736153 185.60175705 C-22.12599786 185.67855737 -22.12599786 185.67855737 -35.21191406 178.38037109 C-35.87642578 178.0278125 -36.5409375 177.67525391 -37.22558594 177.31201172 C-42.07088942 174.68687679 -46.58634107 171.86735638 -50.71191406 168.19287109 C-51.35 167.65791016 -51.98808594 167.12294922 -52.64550781 166.57177734 C-61.64759154 158.41199384 -67.2768754 147.49388991 -71.14941406 136.13037109 C-71.50156982 135.1067749 -71.50156982 135.1067749 -71.86083984 134.0625 C-75.84990623 121.41027983 -76.03464406 108.46442659 -75.97265625 95.33374023 C-75.96191639 92.63095751 -75.97262231 89.92883716 -75.98535156 87.22607422 C-76.00494934 63.95204733 -71.75436594 41.07735816 -55.71191406 23.19287109 C-55.02226563 22.42201172 -54.33261719 21.65115234 -53.62207031 20.85693359 C-39.49269471 5.90810387 -20.11267073 0.0856233 0 0 Z " fill="#FDFBDB" transform="translate(84.7119140625,214.80712890625)"/>
<path d="M0 0 C0.33 0 0.66 0 1 0 C1.15855469 0.90878906 1.31710937 1.81757813 1.48046875 2.75390625 C5.48772058 24.33993132 13.03572952 43.89241956 31.37890625 57.33984375 C49.90818702 69.07597539 68.96250453 69.47642661 90.2734375 69.46875 C92.69284233 69.47586598 95.11224551 69.48356703 97.53164673 69.49182129 C102.57274082 69.50518806 107.61367842 69.50686787 112.65478516 69.50097656 C119.09716213 69.49505714 125.5387916 69.52580213 131.98102379 69.56609344 C136.96546437 69.59198816 141.94972461 69.59484677 146.93422318 69.59120178 C149.30956542 69.59288819 151.68491642 69.60248421 154.06019211 69.62034607 C157.38096768 69.64259365 160.70022373 69.63280646 164.02099609 69.61523438 C165.47223373 69.63512924 165.47223373 69.63512924 166.95278931 69.65542603 C174.96050115 69.55745756 181.49122098 67.13166726 187.5078125 61.76171875 C188.04148438 61.07722656 188.57515625 60.39273438 189.125 59.6875 C189.96417969 58.64142578 189.96417969 58.64142578 190.8203125 57.57421875 C191.20960938 57.05472656 191.59890625 56.53523438 192 56 C192.495 56.70125 192.99 57.4025 193.5 58.125 C198.68112263 64.08329102 204.67653192 68.67380885 212.72294617 69.28088379 C214.18845791 69.30482016 215.65417233 69.31790675 217.11987305 69.32226562 C217.92384018 69.33219543 218.72780731 69.34212524 219.55613708 69.35235596 C222.20803292 69.38149211 224.85968933 69.3951864 227.51171875 69.40625 C229.36391704 69.41776379 231.21611533 69.42927911 233.0683136 69.4407959 C236.95107122 69.46178683 240.83374639 69.47349041 244.71655273 69.48046875 C249.67186088 69.49141859 254.62606445 69.53944041 259.58102703 69.59641266 C263.40826001 69.63382007 267.23523132 69.6440848 271.06263161 69.6471405 C272.88817175 69.65316231 274.71370901 69.66911339 276.53906822 69.69551086 C290.88302109 70.04732682 290.88302109 70.04732682 303 63 C307.64652221 56.93492876 310.35560196 50.11953318 313 43 C317.29 43 321.58 43 326 43 C326.6290625 44.30195313 327.258125 45.60390625 327.90625 46.9453125 C328.76979182 48.67239615 329.63443405 50.3989299 330.5 52.125 C331.11488281 53.40890625 331.11488281 53.40890625 331.7421875 54.71875 C335.24014125 61.60865891 339.51253025 66.50417675 347 69 C348.81821245 69.10098868 350.63989054 69.14363021 352.46087646 69.15390015 C353.59606216 69.16250061 354.73124786 69.17110107 355.90083313 69.17996216 C357.14753281 69.18422211 358.39423248 69.18848206 359.67871094 69.19287109 C360.99129379 69.20104858 362.30387665 69.20922607 363.65623474 69.21765137 C368.01559397 69.24386424 372.37496269 69.25919009 376.734375 69.2734375 C378.239413 69.27879972 379.74445094 69.28417723 381.24948883 69.28956985 C387.51863651 69.31120804 393.78778166 69.32993731 400.05695724 69.34119225 C409.01234037 69.35737872 417.96728595 69.39041545 426.92250419 69.44759309 C433.23272548 69.48649177 439.54283081 69.505849 445.85316873 69.51111281 C449.6136129 69.51474259 453.37359038 69.5265048 457.1339035 69.55921555 C478.64484881 70.09405406 478.64484881 70.09405406 499 64 C499.88266541 63.58970551 500.76533081 63.17941101 501.67474365 62.75668335 C507.59638342 59.87914654 512.26646414 55.50972802 517 51 C520.0864244 52.40428555 522.78237643 54.1975964 525.56640625 56.12280273 C541.53794555 67.00497709 558.96916097 69.3153004 578.02734375 69.30078125 C579.93707726 69.30720894 579.93707726 69.30720894 581.88539124 69.31376648 C584.55012228 69.31946273 587.21445963 69.32099968 589.87915039 69.31567383 C593.27714774 69.30983394 596.67460798 69.32696073 600.07251644 69.3500185 C603.34912128 69.36833474 606.62569697 69.36457101 609.90234375 69.36328125 C611.11284897 69.372491 612.32335419 69.38170074 613.57054138 69.39118958 C622.03611706 69.34475195 627.23628032 68.26067086 634 63 C634.66 63 635.32 63 636 63 C636.68774405 61.67741528 637.34711373 60.34013497 638 59 C638.50893799 57.96222412 639.01787598 56.92444824 639.54223633 55.85522461 C641.215238 51.91624812 641.47341975 48.11989376 641.51171875 43.87890625 C641.52966995 43.13414536 641.54762115 42.38938446 641.56611633 41.62205505 C641.6198231 39.26892577 641.65398543 36.91599456 641.6875 34.5625 C641.72070829 32.95635287 641.75520115 31.35023176 641.79101562 29.74414062 C641.87552574 25.82957101 641.94252371 21.91505606 642 18 C642.33 18 642.66 18 643 18 C643.07477921 23.63758524 643.1288965 29.27487465 643.16479492 34.9128418 C643.17977783 36.82630449 643.20017126 38.73973347 643.22631836 40.65307617 C643.58158397 67.33979329 643.58158397 67.33979329 634.8359375 76.34375 C629.21773807 81.4120831 624.69635737 83.11751831 617.13671875 83.14526367 C615.9544873 83.15164352 614.77225586 83.15802338 613.55419922 83.16459656 C612.27818848 83.16570938 611.00217773 83.1668222 609.6875 83.16796875 C607.7077417 83.17296135 607.7077417 83.17296135 605.68798828 83.17805481 C602.89045394 83.18404028 600.09295045 83.18589559 597.29541016 83.18530273 C593.74304488 83.18520179 590.19088254 83.19878594 586.63856506 83.21607494 C583.88099293 83.22730531 581.12346789 83.2292185 578.36587524 83.22869301 C576.4296927 83.23041997 574.49352487 83.24119997 572.55737305 83.25224304 C554.43417183 83.20606437 538.82345528 79.28722371 523.92578125 68.98828125 C521.64463451 67.43807605 519.50041115 66.13765665 517 65 C516.51273438 65.49628906 516.02546875 65.99257813 515.5234375 66.50390625 C502.81172488 78.68403816 487.72991951 83.4611053 470.43139648 83.41992188 C469.09478046 83.42727767 467.75817076 83.43586824 466.42156982 83.44558716 C462.82037572 83.46764607 459.21941143 83.47074202 455.61815906 83.46883965 C452.6012968 83.46871929 449.58448211 83.47730924 446.56763321 83.48561716 C439.44748111 83.50479253 432.32744623 83.50775553 425.20727539 83.50097656 C417.88163609 83.49433015 410.55649957 83.51723734 403.23096222 83.55429029 C396.91981481 83.58504448 390.60882874 83.59634146 384.29760796 83.59245348 C380.53750386 83.59039298 376.77779186 83.59575702 373.01775932 83.62034607 C369.4822468 83.64270801 365.94755028 83.64065864 362.41203308 83.62041855 C360.50895822 83.61541766 358.60586745 83.6349557 356.70289612 83.65542603 C348.48670355 83.57539047 342.18822524 82.21582914 336.25220394 76.24068451 C331.30288381 70.47153147 328.76648912 62.98489451 326 56 C322.04 56 318.08 56 314 56 C313.54109375 57.09699219 313.0821875 58.19398438 312.609375 59.32421875 C311.98999576 60.77882152 311.37018098 62.23323888 310.75 63.6875 C310.44964844 64.40873047 310.14929688 65.12996094 309.83984375 65.87304688 C306.7534228 73.06375101 303.14293822 77.69370601 296.31439209 81.69599915 C289.23075565 84.48295606 281.50721709 83.83279999 274 83.76171875 C272.15494539 83.76322384 270.30989145 83.76666041 268.46484375 83.77192688 C264.61165295 83.7762423 260.75930371 83.75954239 256.90625 83.72729492 C251.99029512 83.68751557 247.07591705 83.69682651 242.15991211 83.72152996 C238.35403734 83.7357755 234.54852505 83.72557704 230.74267578 83.70801735 C228.93116117 83.70220595 227.11960885 83.70341258 225.30810547 83.71204185 C206.23940931 83.77264317 206.23940931 83.77264317 199 78 C197.19526356 75.96259304 195.63316835 73.9559464 194.15625 71.671875 C193.09104171 69.84499635 193.09104171 69.84499635 191 69 C190.814375 69.70125 190.62875 70.4025 190.4375 71.125 C187.66176081 76.67647838 182.79860652 79.99073788 177.13674736 82.35655594 C172.9574601 83.61507513 168.69225283 83.41506645 164.36157227 83.38818359 C163.313358 83.39344055 162.26514374 83.39869751 161.18516541 83.40411377 C157.72875944 83.41728675 154.27281673 83.40857914 150.81640625 83.3984375 C148.3985129 83.40046037 145.98062015 83.40337358 143.56272888 83.40713501 C138.49301347 83.41155588 133.42345671 83.4051398 128.35375977 83.39111328 C121.89506772 83.3741042 115.43675201 83.38381165 108.97807407 83.40183067 C103.98051698 83.41274539 98.98304691 83.40918572 93.98548698 83.4014473 C91.60674939 83.39946217 89.22800359 83.40184442 86.84927559 83.40888596 C53.5859162 83.48568627 53.5859162 83.48568627 40.5 76.1875 C39.83548828 75.83494141 39.17097656 75.48238281 38.48632812 75.11914062 C33.64102464 72.4940057 29.12557299 69.67448528 25 66 C24.04287109 65.19755859 24.04287109 65.19755859 23.06640625 64.37890625 C8.47548501 51.15321741 1.39927815 30.19343194 0 11 C-0.12149078 7.32490391 -0.13497958 3.67444412 0 0 Z " fill="#F2F24D" transform="translate(9,317)"/>
<path d="M0 0 C1.25159912 0.00523682 2.50319824 0.01047363 3.79272461 0.01586914 C4.78942421 0.01799156 4.78942421 0.01799156 5.80625916 0.02015686 C7.93590735 0.02577021 10.06545175 0.03832485 12.19506836 0.05102539 C13.63582205 0.05603868 15.07657739 0.06060188 16.51733398 0.06469727 C20.05577938 0.07574394 23.59416375 0.09301747 27.13256836 0.11352539 C31.5610706 9.42741445 35.57070342 18.86641634 39.45132446 28.41784668 C41.19304442 32.70435091 42.94468071 36.98680503 44.69506836 41.26977539 C45.05784378 42.15812073 45.4206192 43.04646606 45.79438782 43.96173096 C49.4500902 52.90663215 53.15288475 61.83178734 56.86120605 70.75497437 C62.16142382 83.51110438 67.45554432 96.26982822 72.69506836 109.05102539 C73.15437744 110.16445313 73.61368652 111.27788086 74.08691406 112.42504883 C74.69925903 113.92406738 74.69925903 113.92406738 75.32397461 115.45336914 C75.67661377 116.31309326 76.02925293 117.17281738 76.39257812 118.05859375 C77.13256836 120.11352539 77.13256836 120.11352539 77.13256836 122.11352539 C67.23256836 122.11352539 57.33256836 122.11352539 47.13256836 122.11352539 C43.00532396 113.17116252 39.01222352 104.16605409 35.13256836 95.11352539 C19.62256836 94.78352539 4.11256836 94.45352539 -11.86743164 94.11352539 C-12.19743164 95.76352539 -12.52743164 97.41352539 -12.86743164 99.11352539 C-13.58294436 100.97182623 -14.34857216 102.81129947 -15.15258789 104.63305664 C-15.55614502 105.55449463 -15.95970215 106.47593262 -16.37548828 107.42529297 C-16.88845459 108.58053467 -17.4014209 109.73577637 -17.92993164 110.92602539 C-19.55930664 114.61790039 -21.18868164 118.30977539 -22.86743164 122.11352539 C-32.76743164 122.11352539 -42.66743164 122.11352539 -52.86743164 122.11352539 C-52.17104283 118.63158135 -51.59499023 116.13433185 -50.27954102 112.97387695 C-49.95344345 112.18406937 -49.62734589 111.39426178 -49.29136658 110.58052063 C-48.93490555 109.73031845 -48.57844452 108.88011627 -48.21118164 108.00415039 C-47.83703629 107.10153976 -47.46289093 106.19892914 -47.07740784 105.26896667 C-45.84501249 102.29869496 -44.606228 99.33113248 -43.36743164 96.36352539 C-42.50558781 94.28956845 -41.64418366 92.21542876 -40.78320312 90.14111328 C-39.01398429 85.88044859 -37.24229948 81.62082266 -35.46850586 77.36206055 C-31.96455738 68.94794921 -28.47744333 60.52687657 -24.98901367 52.10632324 C-23.93629788 49.56638553 -22.88253927 47.02688325 -21.82836914 44.48754883 C-18.60063622 36.71212801 -15.37877918 28.93442894 -12.17602539 21.14868164 C-11.6076269 19.76853728 -11.03918744 18.38840979 -10.47070312 17.00830078 C-9.42977345 14.48122099 -8.39199501 11.95292553 -7.35595703 9.42382812 C-6.90599365 8.33142822 -6.45603027 7.23902832 -5.99243164 6.11352539 C-5.60313477 5.16477539 -5.21383789 4.21602539 -4.81274414 3.23852539 C-3.43253141 0.13589843 -3.43253141 0.13589843 0 0 Z " fill="#31302A" transform="translate(316.867431640625,239.886474609375)"/>
<path d="M0 0 C1.73305389 0.00560644 3.46611259 0.00987157 5.19917297 0.01286316 C9.72506205 0.02422955 14.25065489 0.05362445 18.77642822 0.0869751 C23.40885412 0.11785454 28.04132862 0.13140642 32.67382812 0.14648438 C41.73712919 0.17850342 50.80013406 0.23120264 59.86328125 0.29296875 C59.86328125 7.55296875 59.86328125 14.81296875 59.86328125 22.29296875 C56.68421143 22.3069873 56.68421143 22.3069873 53.44091797 22.32128906 C46.42790371 22.35510028 39.41518244 22.41067211 32.40240288 22.47687149 C28.15171673 22.51633194 23.90123729 22.54852729 19.65039062 22.56396484 C15.54580892 22.5791411 11.44179556 22.61360316 7.33746719 22.66127777 C5.77388583 22.6760817 4.21022333 22.6840092 2.64657211 22.6848526 C0.45110685 22.68722715 -1.74279393 22.71434191 -3.93798828 22.74707031 C-5.18597198 22.75595276 -6.43395569 22.76483521 -7.71975708 22.77398682 C-11.76786063 23.38882913 -13.9625011 24.75260094 -17.13671875 27.29296875 C-19.10340438 31.22634002 -18.46013527 35.99526077 -18.13671875 40.29296875 C-17.36032555 43.36750435 -17.36032555 43.36750435 -15.13671875 45.29296875 C-9.4824477 47.80116505 -4.89646266 48.73339257 1.24609375 48.734375 C2.0228244 48.74758286 2.79955505 48.76079071 3.599823 48.7743988 C6.0626785 48.81490579 8.52517099 48.83681616 10.98828125 48.85546875 C46.26518528 49.20345734 46.26518528 49.20345734 57.578125 58.73828125 C66.71060114 68.89781398 66.49756278 81.01463649 66.02929688 93.86669922 C65.45143097 102.31203947 61.1548731 108.1141391 55.4140625 114.08984375 C43.75581034 124.15914577 28.27796955 122.44007284 13.8203125 122.390625 C12.19935653 122.38875583 10.57839998 122.38733429 8.95744324 122.38633728 C4.72759391 122.38255139 0.49777989 122.37275548 -3.73205566 122.3616333 C-8.06290205 122.3513339 -12.39375423 122.34682153 -16.72460938 122.34179688 C-25.19533037 122.33112899 -33.66601608 122.31356485 -42.13671875 122.29296875 C-42.13671875 115.03296875 -42.13671875 107.77296875 -42.13671875 100.29296875 C-40.15422119 100.28362305 -38.17172363 100.27427734 -36.12915039 100.26464844 C-29.55120084 100.22901051 -22.97359417 100.1751427 -16.39588261 100.10906601 C-12.41095995 100.06969339 -8.42625488 100.03745531 -4.44116211 100.02197266 C-0.58942208 100.00673806 3.26171934 99.97217411 7.1131916 99.92465973 C8.57660253 99.90991552 10.04009895 99.90193176 11.50358391 99.9010849 C19.51598181 99.89179239 26.95114655 99.86118247 33.86328125 95.29296875 C36.98786832 91.88432831 37.31970364 88.69040575 37.16796875 84.22265625 C36.73279732 81.46657052 35.45392943 79.546387 33.86328125 77.29296875 C33.86328125 76.63296875 33.86328125 75.97296875 33.86328125 75.29296875 C28.43529224 73.09243267 24.03218056 72.13067246 18.1875 72.046875 C16.62043839 72.01387627 15.05338123 71.98066585 13.48632812 71.94726562 C11.03608992 71.900356 8.58586104 71.85603964 6.13549805 71.81616211 C-27.65556446 71.24004088 -27.65556446 71.24004088 -39.34765625 60.33984375 C-46.17093407 52.53329882 -48.70179547 42.08043666 -48.44921875 31.8984375 C-47.36554635 22.86331886 -42.95405296 13.59281588 -36.13671875 7.5078125 C-25.17477806 -0.45916939 -12.931087 -0.12387618 0 0 Z " fill="#31302B" transform="translate(449.13671875,239.70703125)"/>
<path d="M0 0 C8.58 0 17.16 0 26 0 C26 16.5 26 33 26 50 C41.51 50 57.02 50 73 50 C73 33.5 73 17 73 0 C81.58 0 90.16 0 99 0 C99 40.26 99 80.52 99 122 C90.42 122 81.84 122 73 122 C73 105.17 73 88.34 73 71 C57.49 71 41.98 71 26 71 C26 87.83 26 104.66 26 122 C17.42 122 8.84 122 0 122 C0 81.74 0 41.48 0 0 Z " fill="#31302B" transform="translate(152,240)"/>
<path d="M0 0 C1.29117233 0.00707474 2.58234467 0.01414948 3.91264343 0.0214386 C7.29795346 0.04026916 10.68214133 0.08915059 14.0670166 0.1449585 C17.53996613 0.19667892 21.01310213 0.21906358 24.48632812 0.24414062 C31.26612443 0.29730314 38.04500173 0.38503154 44.82421875 0.48828125 C44.82421875 7.74828125 44.82421875 15.00828125 44.82421875 22.48828125 C41.23546875 22.5140625 37.64671875 22.53984375 33.94921875 22.56640625 C30.45744117 22.60486452 26.96580935 22.65001279 23.47412109 22.69580078 C21.05524707 22.72395356 18.63628202 22.74519627 16.21728516 22.75927734 C12.73162426 22.78078492 9.24705123 22.82747818 5.76171875 22.87890625 C4.15031006 22.88074921 4.15031006 22.88074921 2.50634766 22.88262939 C-4.97213961 23.02713909 -10.37677969 24.20999226 -16.19921875 29.234375 C-16.64523437 29.79253906 -17.09125 30.35070312 -17.55078125 30.92578125 C-18.01226563 31.48136719 -18.47375 32.03695313 -18.94921875 32.609375 C-22.86111122 38.60179627 -22.4963094 43.01409093 -23.17578125 50.48828125 C-0.73578125 50.48828125 21.70421875 50.48828125 44.82421875 50.48828125 C44.82421875 57.74828125 44.82421875 65.00828125 44.82421875 72.48828125 C22.38421875 72.48828125 -0.05578125 72.48828125 -23.17578125 72.48828125 C-20.86203956 85.6810522 -20.86203956 85.6810522 -12.48828125 95.48828125 C-4.7869415 99.41797044 3.70920663 99.79192238 12.20703125 99.90234375 C13.14731171 99.9217099 14.08759216 99.94107605 15.05636597 99.96102905 C18.0205618 100.02017536 20.98479786 100.06694709 23.94921875 100.11328125 C25.97527611 100.15152098 28.00131826 100.19057606 30.02734375 100.23046875 C34.95955024 100.32733696 39.89162083 100.40741899 44.82421875 100.48828125 C44.82421875 107.74828125 44.82421875 115.00828125 44.82421875 122.48828125 C37.88638717 122.53436279 30.94909352 122.57413808 24.01123047 122.59814453 C21.65444126 122.60815967 19.29766434 122.62177567 16.94091797 122.63916016 C13.54000807 122.66360644 10.13926344 122.67480956 6.73828125 122.68359375 C5.17516708 122.69907761 5.17516708 122.69907761 3.58047485 122.71487427 C-2.91418162 122.71585509 -8.86748146 122.02021749 -15.17578125 120.48828125 C-16.03327972 120.28671417 -16.8907782 120.08514709 -17.77426147 119.87747192 C-29.25001574 117.04809847 -37.82123923 110.33927219 -44.17578125 100.48828125 C-46.21091187 96.9240819 -47.76782566 93.34136968 -49.17578125 89.48828125 C-49.56894531 88.42480469 -49.96210937 87.36132812 -50.3671875 86.265625 C-56.10206483 68.22174266 -55.32891041 45.28230285 -47.05078125 28.11328125 C-43.58472916 21.6930413 -39.3881348 16.56001375 -34.17578125 11.48828125 C-33.34820313 10.61236328 -33.34820313 10.61236328 -32.50390625 9.71875 C-23.6989158 1.10991032 -11.7286033 -0.24739204 0 0 Z " fill="#31302B" transform="translate(581.17578125,239.51171875)"/>
<path d="M0 0 C1.1650708 0.00141495 2.3301416 0.0028299 3.53051758 0.00428772 C7.2287052 0.00985709 10.92683087 0.02240394 14.625 0.03515625 C17.14192621 0.04017521 19.65885337 0.04473742 22.17578125 0.04882812 C28.32554447 0.05981649 34.47526176 0.07705995 40.625 0.09765625 C40.625 7.35765625 40.625 14.61765625 40.625 22.09765625 C37.28761719 22.1234375 33.95023437 22.14921875 30.51171875 22.17578125 C27.24820841 22.21428944 23.98485141 22.25942145 20.72143555 22.30517578 C18.46858142 22.33324974 16.21563127 22.35453117 13.96264648 22.36865234 C10.70767537 22.39027048 7.45384236 22.43701726 4.19921875 22.48828125 C3.20605148 22.48950989 2.21288422 22.49073853 1.18962097 22.49200439 C-7.03824048 22.66097754 -14.2158005 24.61983527 -21.3125 28.84765625 C-29.13542021 37.38175103 -29.72050123 48.39434619 -29.6875 59.41015625 C-29.70361328 60.47427734 -29.71972656 61.53839844 -29.73632812 62.63476562 C-29.74223942 72.32337621 -28.19076204 83.01922691 -22.375 91.09765625 C-14.64385125 98.828805 -5.73322972 99.38973376 4.6875 99.51171875 C5.71939453 99.5310849 6.75128906 99.55045105 7.81445312 99.57040405 C11.08455343 99.62980352 14.35468969 99.67642598 17.625 99.72265625 C19.85287926 99.76087252 22.08074432 99.79992634 24.30859375 99.83984375 C29.74731861 99.93703615 35.1859068 100.01691971 40.625 100.09765625 C40.625 107.35765625 40.625 114.61765625 40.625 122.09765625 C32.9752699 122.14730502 25.32563482 122.18349361 17.67578125 122.20751953 C15.07648076 122.21754171 12.47719145 122.23116304 9.87792969 122.24853516 C6.12952914 122.27295003 2.38127841 122.28417754 -1.3671875 122.29296875 C-3.09435501 122.30845261 -3.09435501 122.30845261 -4.85641479 122.32424927 C-17.80047012 122.32602624 -29.80127091 119.9664779 -40.375 112.09765625 C-41.18324219 111.49695313 -41.99148437 110.89625 -42.82421875 110.27734375 C-51.78971532 102.61616904 -56.50480123 89.48371768 -58.375 78.09765625 C-58.57027746 73.59905437 -58.56080844 69.10015429 -58.56030273 64.59790039 C-58.56247585 62.43420335 -58.58061956 60.271028 -58.59960938 58.10742188 C-58.66918599 41.51029038 -55.27914576 25.68632181 -43.56640625 13.1640625 C-31.17299575 1.56861807 -16.23276982 -0.0749378 0 0 Z " fill="#31302B" transform="translate(93.375,239.90234375)"/>
<path d="M0 0 C3.0478872 1.38406472 5.68059505 3.15342122 8.4152832 5.07226562 C14.42707495 9.21347416 20.37645036 12.20294953 27.3125 14.5 C28.40425537 14.86399902 28.40425537 14.86399902 29.51806641 15.23535156 C39.17334761 18.23746887 48.95260918 18.16947232 58.9765625 18.203125 C59.9605559 18.20736607 59.9605559 18.20736607 60.96442795 18.21169281 C64.42843768 18.22657562 67.89240685 18.23587682 71.35644531 18.24023438 C74.91484712 18.24573848 78.4728701 18.26983797 82.03115273 18.29820633 C84.788514 18.31689006 87.54578437 18.32204109 90.30320358 18.32357025 C92.24796746 18.32803074 94.19268253 18.34663269 96.13735962 18.36553955 C106.11571633 18.34041046 111.82459826 16.6292419 119.265625 9.8515625 C121.48919823 7.47774784 122.82169347 5.01941049 124 2 C125.18816109 5.56448328 124.49334607 6.92171422 122.94140625 10.234375 C119.55455287 16.58648175 114.47798954 20.90242417 107.66333008 23.05297852 C101.89707732 24.44369546 96.11539914 24.28618844 90.21484375 24.265625 C88.39225792 24.26849518 88.39225792 24.26849518 86.53285217 24.27142334 C83.97364087 24.27277968 81.41442255 24.2691219 78.85522461 24.26074219 C74.94694527 24.2500259 71.0391246 24.26066138 67.13085938 24.2734375 C64.63801982 24.27211599 62.14518056 24.26955377 59.65234375 24.265625 C58.48863754 24.26967346 57.32493134 24.27372192 56.1259613 24.27789307 C50.33383846 24.24453994 45.47170038 23.91495624 40 22 C38.14969835 21.7228397 36.29522995 21.47197627 34.4375 21.25 C23.30861366 19.44155597 13.99926824 14.59515082 5.3046875 7.5390625 C2.90747828 5.62976628 2.90747828 5.62976628 -1 6 C-2.96143976 7.51848173 -2.96143976 7.51848173 -4.875 9.5625 C-19.2084615 22.8789007 -37.05778823 24.17220819 -55.70166016 24.11352539 C-56.93207031 24.11367142 -58.16248047 24.11381744 -59.43017578 24.1139679 C-62.77247704 24.1133945 -66.11471496 24.10841207 -69.45700502 24.10139394 C-72.96168102 24.09510238 -76.46635805 24.09455204 -79.97103882 24.09336853 C-86.59349968 24.09027221 -93.21594384 24.08208193 -99.83839738 24.07201904 C-107.38382802 24.06080487 -114.92925949 24.05533414 -122.4746964 24.05032361 C-137.98314057 24.03989774 -153.49156812 24.0223315 -169 24 C-169 23.34 -169 22.68 -169 22 C-169.825 21.979375 -170.65 21.95875 -171.5 21.9375 C-176.47572981 20.60471523 -179.55236216 17.75602747 -183 14 C-184.5 11.0625 -184.5 11.0625 -185 9 C-184.01 9 -183.02 9 -182 9 C-180.33333333 10.66666667 -178.66666667 12.33333333 -177 14 C-170.58071142 18.81498177 -164.70297365 18.57494254 -156.8671875 18.53344727 C-154.89743706 18.54637062 -154.89743706 18.54637062 -152.88789368 18.55955505 C-149.29843954 18.58198992 -145.70942767 18.57912102 -142.11993027 18.57023358 C-139.11123038 18.56510412 -136.10261218 18.57243317 -133.09392071 18.57970566 C-125.98360176 18.59669047 -118.87349742 18.59315857 -111.76318359 18.57641602 C-104.46326753 18.55954723 -97.16395176 18.5752595 -89.86410141 18.6076389 C-83.57073968 18.63448157 -77.27756309 18.64157003 -70.98414993 18.63312382 C-67.23724314 18.6282307 -63.49069602 18.63020909 -59.74383545 18.65091133 C-36.05030236 18.76847678 -17.96081659 16.95741901 0 0 Z " fill="#111106" transform="translate(526,381)"/>
<path d="M0 0 C3.03301116 2.82247676 5.10170421 5.61847165 7.1875 9.1875 C15.95335521 23.0945108 30.41083865 32.76250067 46.44770813 36.58314514 C58.2003379 38.66207469 70.0842696 38.34821818 81.98046875 38.37109375 C84.40416006 38.38007495 86.82785086 38.38919703 89.25154114 38.39845276 C94.31053 38.41486812 99.36945323 38.42263021 104.4284668 38.42553711 C110.89443867 38.43093756 117.35979084 38.46871918 123.82558727 38.51428127 C128.82288353 38.5440769 133.82003025 38.5512611 138.81740761 38.55226326 C141.20113297 38.55645431 143.58485923 38.56884346 145.96849632 38.58978081 C149.30392295 38.61676858 152.63790703 38.6118486 155.97338867 38.59936523 C157.43169601 38.62161667 157.43169601 38.62161667 158.91946411 38.64431763 C166.38738842 38.5651076 173.11981497 36.63424153 178.69154644 31.41567135 C180.40921436 29.40705773 181.81759809 27.36480383 183 25 C186 26 186 26 188.0625 29.25 C191.46846725 34.07488255 195.38515729 36.25461179 201 38 C207.30048412 38.9193931 213.72008406 38.70500302 220.0703125 38.6640625 C221.92015908 38.66743655 223.77000348 38.67229405 225.61984253 38.67855835 C229.48131589 38.68589827 233.34220791 38.67531528 237.20361328 38.65185547 C242.13766146 38.62332907 247.07035187 38.63981415 252.00435066 38.66971779 C255.81869638 38.68783484 259.63272308 38.68201329 263.4470787 38.66907883 C265.26583902 38.66575906 267.08462891 38.66978126 268.90335464 38.68147659 C281.84214924 38.93920939 281.84214924 38.93920939 293 33 C293.66 33 294.32 33 295 33 C295.268125 32.4225 295.53625 31.845 295.8125 31.25 C297.02929189 28.94449957 298.30333879 26.97943808 300 25 C300.66 25 301.32 25 302 25 C299.83475366 31.92878829 295.66810502 37.36069402 289.375 40.9375 C284.04754074 43.69469383 279.72233157 44.12990431 273.7121582 44.16113281 C272.98475937 44.16609772 272.25736053 44.17106262 271.50791931 44.17617798 C269.10553024 44.19076092 266.70320728 44.1975963 264.30078125 44.203125 C262.62412007 44.20888108 260.9474589 44.21463876 259.27079773 44.22039795 C255.75450332 44.23089795 252.2382317 44.23674668 248.72192383 44.24023438 C244.23429643 44.24570697 239.74697428 44.26971265 235.25944233 44.29820633 C231.7942774 44.31691018 228.32918474 44.32204249 224.86397362 44.32357025 C223.2106987 44.32658152 221.55742459 44.33455802 219.9041996 44.34775543 C199.51573713 44.49885202 199.51573713 44.49885202 191 38 C188.56414748 35.41543227 186.25853103 32.74017742 184 30 C183.278125 31.093125 182.55625 32.18625 181.8125 33.3125 C179.57729623 36.44940529 177.56032442 38.36417526 174 40 C173.34 40 172.68 40 172 40 C172 40.66 172 41.32 172 42 C164.80998628 44.36550517 157.71440458 44.27158224 150.21899414 44.20581055 C148.07100476 44.18757221 145.92344942 44.18530135 143.77539062 44.18554688 C138.04891079 44.16970565 132.37294395 44.14054687 126.68359375 43.42578125 C123.06274491 42.74404735 123.06274491 42.74404735 120 44 C118.2131322 44.0980324 116.42284181 44.13820752 114.63330078 44.14526367 C113.5343045 44.15164352 112.43530823 44.15802338 111.30300903 44.16459656 C110.11246918 44.16570938 108.92192932 44.1668222 107.6953125 44.16796875 C105.85016556 44.17296135 105.85016556 44.17296135 103.96774292 44.17805481 C101.35675429 44.18312475 98.74575917 44.18546311 96.13476562 44.18530273 C92.17570289 44.18518228 88.21682943 44.20558039 84.2578125 44.22460938 C81.71614678 44.22754682 79.17447974 44.22952927 76.6328125 44.23046875 C74.87736618 44.24124702 74.87736618 44.24124702 73.0864563 44.25224304 C49.4080218 44.18780375 29.44744723 38.0134804 12.25 21.5625 C6.68073059 15.85523099 0 8.39053276 0 0 Z " fill="#111106" transform="translate(17,361)"/>
<path d="M0 0 C0.66 0 1.32 0 2 0 C4.1236072 5.17550691 6.24135473 10.35335802 8.35375977 15.53344727 C9.07286474 17.29451736 9.79355333 19.05494168 10.51586914 20.81469727 C11.55514043 23.3474293 12.58865349 25.88244576 13.62109375 28.41796875 C13.94403915 29.20149216 14.26698456 29.98501556 14.59971619 30.7922821 C14.89995193 31.53267227 15.20018768 32.27306244 15.50952148 33.03588867 C15.77377426 33.68208664 16.03802704 34.32828461 16.31028748 34.99406433 C17 37 17 37 18 42 C6.78 42 -4.44 42 -16 42 C-15.32054688 38.60273441 -14.77250362 36.12435759 -13.50952148 33.03588867 C-13.20928574 32.2954985 -12.90904999 31.55510834 -12.59971619 30.7922821 C-12.27677078 30.0087587 -11.95382538 29.22523529 -11.62109375 28.41796875 C-11.28956802 27.60378983 -10.9580423 26.7896109 -10.61647034 25.95075989 C-9.56095654 23.36129258 -8.49932275 20.7743858 -7.4375 18.1875 C-6.71899531 16.42789999 -6.00089179 14.66813612 -5.28320312 12.90820312 C-3.52677761 8.60355636 -1.76486066 4.30119494 0 0 Z " fill="#F8F6D7" transform="translate(328,270)"/>
<path d="M0 0 C0.77403168 0.00141495 1.54806335 0.0028299 2.34555054 0.00428772 C4.82155192 0.00989222 7.29746338 0.02244542 9.7734375 0.03515625 C11.45051953 0.04017067 13.12760297 0.04473368 14.8046875 0.04882812 C18.91930556 0.0598631 23.03385628 0.07713071 27.1484375 0.09765625 C27.1484375 4.71765625 27.1484375 9.33765625 27.1484375 14.09765625 C15.2684375 14.09765625 3.3884375 14.09765625 -8.8515625 14.09765625 C-9.66876743 10.82883652 -9.96229793 8.62766556 -9.9140625 5.34765625 C-9.90503906 4.5484375 -9.89601563 3.74921875 -9.88671875 2.92578125 C-9.87511719 2.3225 -9.86351563 1.71921875 -9.8515625 1.09765625 C-6.73202122 -0.46211439 -3.42196866 -0.02338501 0 0 Z " fill="#27271B" transform="translate(98.8515625,299.90234375)"/>
<path d="M0 0 C11.88 0 23.76 0 36 0 C36 3.96 36 7.92 36 12 C23.79 12.33 11.58 12.66 -1 13 C-1 4 -1 4 0 0 Z " fill="#F4F44B" transform="translate(90,288)"/>
<path d="M0 0 C11.55 0 23.1 0 35 0 C35 1.32 35 2.64 35 4 C23.45 4 11.9 4 0 4 C0 2.68 0 1.36 0 0 Z " fill="#030202" transform="translate(90,301)"/>
<path d="M0 0 C3.96 0 7.92 0 12 0 C17.35714286 11.11607143 17.35714286 11.11607143 17 16 C14.82145293 12.7321794 13.50239966 9.61941735 12 6 C10.06372231 5.89192869 8.12572244 5.8143775 6.1875 5.75 C5.10855469 5.70359375 4.02960938 5.6571875 2.91796875 5.609375 C-0.12076818 5.70283547 -0.12076818 5.70283547 -1.88671875 8.015625 C-2.25410156 8.67046875 -2.62148438 9.3253125 -3 10 C-2.46599103 6.08393425 -1.80330533 3.60661066 0 0 Z " fill="#181808" transform="translate(323,372)"/>
<path d="M0 0 C0.33 0 0.66 0 1 0 C1.02483991 5.69254239 1.04292602 11.38505276 1.05493164 17.07763672 C1.05994013 19.01156159 1.06674882 20.94548271 1.07543945 22.87939453 C1.08765831 25.6696058 1.09326329 28.45976672 1.09765625 31.25 C1.10281754 32.10553467 1.10797882 32.96106934 1.11329651 33.8425293 C1.1137702 38.98671273 0.74169581 43.90821979 0 49 C-1.89879606 45.70875349 -2.69675394 42.79057581 -3 39 C-2.68369629 38.10651855 -2.36739258 37.21303711 -2.04150391 36.29248047 C-0.85701248 32.54797709 -0.650931 29.08251297 -0.5859375 25.1953125 C-0.56657135 24.4713327 -0.5472052 23.74735291 -0.5272522 23.00143433 C-0.46790114 20.70940602 -0.42125122 18.41732626 -0.375 16.125 C-0.33677913 14.56247919 -0.29772506 12.99997852 -0.2578125 11.4375 C-0.16223692 7.62516535 -0.07804394 3.8127322 0 0 Z " fill="#B3B277" transform="translate(651,235)"/>
<path d="M0 0 C0.33 0 0.66 0 1 0 C1.02484561 5.55012695 1.04292868 11.10022102 1.05493164 16.65039062 C1.05993919 18.53581303 1.06674715 20.4212316 1.07543945 22.30664062 C1.08766253 25.02735344 1.09326424 27.7480146 1.09765625 30.46875 C1.10281754 31.30241089 1.10797882 32.13607178 1.11329651 32.99499512 C1.11377714 38.08707816 0.73129553 42.95937477 0 48 C-1.89435556 44.71645037 -2.69136965 41.78072176 -3 38 C-2.68369629 37.27079346 -2.36739258 36.54158691 -2.04150391 35.7902832 C-0.7317978 32.28146203 -0.64728672 28.98962053 -0.5859375 25.29296875 C-0.56657135 24.56757401 -0.5472052 23.84217926 -0.5272522 23.09480286 C-0.46777892 20.79248578 -0.42120155 18.49011781 -0.375 16.1875 C-0.33679042 14.62042168 -0.29773697 13.05336369 -0.2578125 11.48632812 C-0.16210437 7.65771848 -0.07795552 3.82901058 0 0 Z " fill="#CACA6B" transform="translate(651,286)"/>
<path d="M0 0 C0.33 0 0.66 0 1 0 C1 5.28 1 10.56 1 16 C-1.45045865 11.0990827 -2.54948415 7.97814293 -1.0625 2.625 C-0.711875 1.75875 -0.36125 0.8925 0 0 Z " fill="#E9E953" transform="translate(650,268)"/>
<path d="M0 0 C3.08089673 2.77280706 4.68775452 5.06326356 6 9 C5.01 9.33 4.02 9.66 3 10 C0 3.375 0 3.375 0 0 Z " fill="#131308" transform="translate(17,361)"/>
</svg>
